<svg width="44" height="44" viewBox="0 0 44 44" fill="none" xmlns="http://www.w3.org/2000/svg">
<path d="M14.0004 4.91968C10.0625 2.88146 8.09157 1.86265 6.47587 2.01489C5.0666 2.14767 3.7875 2.81075 2.95458 3.83848C2 5.01634 2 7.05329 2 11.1269V32.8731C2 36.9467 2 38.9833 2.95458 40.1612C3.7875 41.1889 5.0666 41.8523 6.47587 41.9851C8.09157 42.1373 10.0625 41.1188 14.0004 39.0806L35.0004 28.2114C38.9383 26.1732 40.9069 25.1537 41.5677 23.8232C42.1441 22.6626 42.1441 21.3366 41.5677 20.1761C40.9072 18.8462 38.9386 17.8272 35.0039 15.7907L14.0004 4.91968Z" stroke="currentColor" stroke-width="4" stroke-linecap="round" stroke-linejoin="round"/>
</svg>
