<svg width="20" height="26" viewBox="0 0 22 28" fill="none" xmlns="http://www.w3.org/2000/svg">
<path d="M10.9999 22.6667V14M10.9999 14L6.71421 16.8889M10.9999 14L15.2855 16.8889M12.4284 1.00126C12.292 1 12.1388 1 11.9637 1H5.57164C3.97152 1 3.17086 1 2.55969 1.31487C2.02209 1.59184 1.58533 2.03346 1.31141 2.57704C1 3.19501 1 4.00457 1 5.6225V22.3781C1 23.996 1 24.8045 1.31141 25.4225C1.58533 25.9661 2.02209 26.4085 2.55969 26.6854C3.17026 27 3.96996 27 5.567 27L16.4328 27C18.0298 27 18.8283 27 19.4389 26.6854C19.9765 26.4085 20.4147 25.9661 20.6886 25.4225C20.9997 24.8051 20.9997 23.9977 20.9997 22.3829V10.1371C20.9997 9.95983 20.9997 9.80477 20.9984 9.66667M12.4284 1.00126C12.8365 1.00501 13.0946 1.02 13.341 1.07982C13.6326 1.15059 13.911 1.2676 14.1667 1.426C14.4549 1.60459 14.7024 1.85485 15.1962 2.35417L19.6611 6.86875C20.1553 7.36839 20.401 7.61752 20.5777 7.90906C20.7343 8.16753 20.8502 8.44937 20.9202 8.74414C20.9793 8.99321 20.9945 9.25429 20.9984 9.66667M12.4284 1.00126V5.04444C12.4284 6.66237 12.4284 7.47077 12.7398 8.08874C13.0137 8.63232 13.4505 9.07514 13.9881 9.3521C14.5987 9.66667 15.3984 9.66667 16.9954 9.66667H20.9984M20.9984 9.66667H21" stroke="currentColor" stroke-width="2" stroke-linecap="round" stroke-linejoin="round"/>
</svg>
